<svg version="1.1" xmlns="http://www.w3.org/2000/svg" xmlns:xlink="http://www.w3.org/1999/xlink" x="0px" y="0px" viewBox="0 0 250 250" enable-background="new 0 0 250 250" xml:space="preserve">
	
	<!-- Close / Clear -->
	<path fill="#ffffff" d="M24.5,18c-3.6,0-6.5,2.9-6.5,6.5c0,3.6,2.9,6.5,6.5,6.5c3.6,0,6.5-2.9,6.5-6.5C31,20.9,28.1,18,24.5,18z M27.6,26.2c0.4,0.4,0.4,1,0,1.4c-0.2,0.2-0.5,0.3-0.7,0.3s-0.5-0.1-0.7-0.3l-1.7-1.7l-1.7,1.7c-0.2,0.2-0.5,0.3-0.7,0.3s-0.5-0.1-0.7-0.3c-0.4-0.4-0.4-1,0-1.4l1.7-1.7l-1.7-1.7c-0.4-0.4-0.4-1,0-1.4c0.4-0.4,1-0.4,1.4,0l1.7,1.7l1.7-1.7c0.4-0.4,1-0.4,1.4,0c0.4,0.4,0.4,1,0,1.4l-1.7,1.7L27.6,26.2z"/>
	<path fill="#121320" d="M74.5,18c-3.6,0-6.5,2.9-6.5,6.5c0,3.6,2.9,6.5,6.5,6.5c3.6,0,6.5-2.9,6.5-6.5C81,20.9,78.1,18,74.5,18z M77.6,26.2c0.4,0.4,0.4,1,0,1.4c-0.2,0.2-0.5,0.3-0.7,0.3s-0.5-0.1-0.7-0.3l-1.7-1.7l-1.7,1.7c-0.2,0.2-0.5,0.3-0.7,0.3s-0.5-0.1-0.7-0.3c-0.4-0.4-0.4-1,0-1.4l1.7-1.7l-1.7-1.7c-0.4-0.4-0.4-1,0-1.4c0.4-0.4,1-0.4,1.4,0l1.7,1.7l1.7-1.7c0.4-0.4,1-0.4,1.4,0c0.4,0.4,0.4,1,0,1.4l-1.7,1.7L77.6,26.2z"/>
	
	<!-- Arrows -->
	<polyline fill="none" stroke="#48484C" stroke-width="2" stroke-linecap="round" stroke-linejoin="round" stroke-miterlimit="10" points="26.3,78 22.7,74.5 26.2,71"/>
	<polyline fill="none" stroke="#ffffff" stroke-width="2" stroke-linecap="round" stroke-linejoin="round" stroke-miterlimit="10" points="76.3,78 72.7,74.5 76.2,71"/>
	<polyline fill="none" stroke="#ffffff" stroke-width="2" stroke-linecap="round" stroke-linejoin="round" stroke-miterlimit="10" points="173.7,78 177.3,74.5 173.8,71"/>
	<polyline fill="none" stroke="#48484C" stroke-width="2" stroke-linecap="round" stroke-linejoin="round" stroke-miterlimit="10" points="123.7,78 127.3,74.5 123.8,71"/>
	<g>
		<polyline fill="none" stroke="#A6A8AB" stroke-width="2" stroke-linecap="round" stroke-linejoin="round" stroke-miterlimit="10" points="228.3,78.8 232,75 228.3,71.3"/>
		<line fill="none" stroke="#A6A8AB" stroke-width="2" stroke-linecap="round" stroke-linejoin="round" stroke-miterlimit="10" x1="232" y1="75" x2="218" y2="75"/>
	</g>
	
	<!-- Icons: Tag, Category, Artist -->
	<g>
		<circle fill="#939598" cx="23.2" cy="121.6" r="1.4"/>
		<path fill="none" stroke="#939598" stroke-width="2" stroke-linecap="round" stroke-linejoin="round" d="M18.4,123.7c-0.1-0.2-0.1-0.5,0-0.7l2.2-5.7c0.1-0.3,0.4-0.6,0.8-0.7c0.4-0.1,0.7-0.1,1.1,0l5.4,2.9c0.2,0.1,0.4,0.3,0.4,0.5l3.3,9c0.2,0.6-0.1,1.3-0.7,1.6l-7.6,2.8c-0.6,0.2-1.3-0.1-1.6-0.7L18.4,123.7z"/>
	</g>
	<path fill="none" stroke="#939598" stroke-width="2" stroke-linecap="round" stroke-linejoin="round" d="M130.2,127.6l-2.2-3.9c-0.3-0.6-1-1-1.7-1h-8c-0.7,0-1.3,0.6-1.3,1.3c0,0.2,0,0.4,0.1,0.5l3.1,5.6c0.3,0.5,0.9,0.9,1.5,0.9h9.8c0.8,0,1.4-0.6,1.4-1.4v-9.2c0-0.8-0.6-1.4-1.4-1.4h-4.6c-0.8,0-1.4,0.6-1.4,1.4l0,0"/>
	<path fill="none" stroke="#6D6E71" stroke-width="2" stroke-linecap="round" stroke-linejoin="round" d="M223.4,129.4l0-1.3c-0.8-0.5-1.3-1.4-1.3-2.4v-2.1c0-1.6,1.3-2.9,2.9-2.9c1.6,0,2.9,1.3,2.9,2.9v2.1c0,1-0.5,1.9-1.3,2.4l0,1.3c0.8,0.6,5.2,3.6,5.2,3.6c1.6-1.7,2.7-4,2.7-6.6c0-5.2-4.3-9.5-9.5-9.5c-5.2,0-9.5,4.3-9.5,9.5c0,2.6,1,4.9,2.7,6.6C218.2,133,222.5,130,223.4,129.4z"/>
	
	<!-- Search -->
	<path fill="none" stroke="#ffffff" stroke-width="2" stroke-linecap="round" stroke-linejoin="round" d="M30.3,183.3l-2.7-4.7l1.3-0.8c1.4-1.2,2.3-2.9,2.3-4.9c0-3.5-2.8-6.3-6.3-6.3c-3.5,0-6.3,2.8-6.3,6.3c0,3.1,2.2,5.7,5.2,6.2"/>
	<path fill="none" stroke="#6D6E71" stroke-width="2" stroke-linecap="round" stroke-linejoin="round" stroke-miterlimit="10" d="M80.3,183.3l-2.7-4.7l1.3-0.8c1.4-1.2,2.3-2.9,2.3-4.9c0-3.5-2.8-6.3-6.3-6.3c-3.5,0-6.3,2.8-6.3,6.3c0,3.1,2.2,5.7,5.2,6.2"/>
	
	<!-- Radio button -->
	<path fill="none" stroke="#A7A9AC" d="M31.5,225c0,3.6-2.9,6.5-6.5,6.5c-3.6,0-6.5-2.9-6.5-6.5c0-3.6,2.9-6.5,6.5-6.5C28.6,218.5,31.5,221.4,31.5,225z"/>
	<path fill="none" stroke="#00B3F0" stroke-linecap="round" stroke-linejoin="round" stroke-miterlimit="10" d="M81.5,225c0,3.6-2.9,6.5-6.5,6.5c-3.6,0-6.5-2.9-6.5-6.5c0-3.6,2.9-6.5,6.5-6.5C78.6,218.5,81.5,221.4,81.5,225z"/>
	<g>
		<path fill="none" stroke="#00B3F0" stroke-linecap="round" stroke-linejoin="round" stroke-miterlimit="10" d="M131.5,225c0,3.6-2.9,6.5-6.5,6.5c-3.6,0-6.5-2.9-6.5-6.5c0-3.6,2.9-6.5,6.5-6.5C128.6,218.5,131.5,221.4,131.5,225z"/>
		<path fill="#00B3F0" d="M128.3,225c0,1.8-1.5,3.3-3.3,3.3c-1.8,0-3.3-1.5-3.3-3.3c0-1.8,1.5-3.3,3.3-3.3C126.8,221.7,128.3,223.2,128.3,225z"/>
	</g>
</svg>
